<?xml version="1.0" encoding="utf-8"?>
<!-- Generator: Adobe Illustrator 18.1.1, SVG Export Plug-In . SVG Version: 6.00 Build 0)  -->
<svg version="1.1" xmlns="http://www.w3.org/2000/svg" xmlns:xlink="http://www.w3.org/1999/xlink" x="0px" y="0px"
	 viewBox="0 0 175 130.5" enable-background="new 0 0 175 130.5" xml:space="preserve">
<g id="Layer_1">
	<g>
		<g>
			<polyline fill="none" stroke="#41BB93" stroke-width="2" stroke-miterlimit="10" points="75,17.7 75,92.4 1.4,92.4 1.4,129.8 
				173.6,129.8 173.6,92.4 83.7,92.4 83.7,9 			"/>
			<line fill="none" stroke="#41BB93" stroke-width="2" stroke-miterlimit="10" x1="110.2" y1="54.9" x2="110.2" y2="45"/>
			<line fill="none" stroke="#41BB93" stroke-width="2" stroke-miterlimit="10" x1="48.6" y1="65.1" x2="48.6" y2="56.6"/>
			<polyline fill="none" stroke="#41BB93" stroke-width="2" stroke-miterlimit="10" points="127.8,39.8 127.8,54.9 83.7,54.9 			"/>
			<polyline fill="none" stroke="#41BB93" stroke-width="2" stroke-miterlimit="10" points="30.9,47.9 30.9,65.1 75,65.1 			"/>
			<line fill="none" stroke="#41BB93" stroke-width="2" stroke-miterlimit="10" x1="83.7" y1="18" x2="71.7" y2="18"/>
			<line fill="none" stroke="#41BB93" stroke-width="2" stroke-miterlimit="10" x1="59.9" y1="39.2" x2="59.9" y2="45"/>
			<polyline fill="none" stroke="#41BB93" stroke-width="2" stroke-miterlimit="10" points="41.5,34.6 41.5,45 64.2,45 64.2,65.1 
							"/>
			<line fill="none" stroke="#41BB93" stroke-width="2" stroke-miterlimit="10" x1="96.9" y1="23.8" x2="96.9" y2="29.3"/>
			<polyline fill="none" stroke="#41BB93" stroke-width="2" stroke-miterlimit="10" points="117.7,19.4 117.7,29.6 83.7,29.6 			"/>
			<line fill="none" stroke="#41BB93" stroke-width="2" stroke-miterlimit="10" x1="95.9" y1="54.9" x2="95.9" y2="50.5"/>
			<circle fill="#41BB93" cx="30.9" cy="47.5" r="4.9"/>
			<circle fill="#41BB93" cx="48.6" cy="56.5" r="4.9"/>
			<circle fill="#41BB93" cx="41.5" cy="33.2" r="4.9"/>
			<circle fill="#41BB93" cx="59.9" cy="37.2" r="4.9"/>
			<circle fill="#41BB93" cx="83.7" cy="5.6" r="4.9"/>
			<circle fill="#41BB93" cx="68.3" cy="18" r="4.9"/>
			<circle fill="#41BB93" cx="96.9" cy="22.3" r="4.9"/>
			<circle fill="#41BB93" cx="117.7" cy="17.4" r="4.9"/>
			<circle fill="#41BB93" cx="95.8" cy="47.8" r="4.9"/>
			<circle fill="#41BB93" cx="110.2" cy="42.7" r="4.9"/>
			<circle fill="#41BB93" cx="127.8" cy="38.1" r="4.9"/>
			<circle fill="#41BB93" cx="75" cy="65.1" r="4.9"/>
			<circle fill="#41BB93" cx="84.8" cy="29.3" r="4.9"/>
		</g>
		<g>
			<path fill="#ABABAB" d="M20.1,102.4h-4.7V121h-0.9v-18.6H9.9v-0.9h10.3V102.4z"/>
			<path fill="#ABABAB" d="M22.6,102.4v8.4h6.1v0.9h-6.1v8.4h6.1v0.9h-7v-19.5h7v0.9H22.6z"/>
			<path fill="#ABABAB" d="M34.6,121c-0.5,0-1-0.1-1.5-0.2c-0.5-0.1-0.9-0.4-1.3-0.8c-0.4-0.4-0.7-0.9-1-1.6
				c-0.3-0.7-0.4-1.5-0.4-2.6v-9.2c0-1.1,0.1-1.9,0.4-2.6c0.3-0.7,0.6-1.2,1-1.6c0.4-0.4,0.9-0.6,1.3-0.8c0.5-0.1,1-0.2,1.5-0.2
				c0.5,0,0.9,0.1,1.4,0.2c0.5,0.1,0.9,0.4,1.3,0.8c0.4,0.4,0.7,0.9,1,1.6c0.3,0.7,0.4,1.5,0.4,2.6v0.5h-0.9v-0.5
				c0-1.5-0.3-2.6-0.8-3.2c-0.6-0.7-1.4-1-2.4-1c-1.1,0-1.9,0.3-2.4,1c-0.5,0.7-0.8,1.8-0.8,3.2v9.2c0,1.5,0.3,2.6,0.8,3.3
				c0.5,0.7,1.3,1,2.4,1c1,0,1.8-0.3,2.4-1c0.5-0.7,0.8-1.8,0.8-3.3v-0.5h0.9v0.5c0,1.1-0.1,2-0.4,2.6c-0.3,0.7-0.6,1.2-1,1.6
				c-0.4,0.4-0.9,0.6-1.3,0.8C35.5,121,35,121,34.6,121z"/>
			<path fill="#ABABAB" d="M48.2,101.5V121h-0.9v-9.3h-5.9v9.3h-0.9v-19.5h0.9v9.3h5.9v-9.3H48.2z"/>
			<path fill="#ABABAB" d="M68.3,102.4h-4.7V121h-2.8v-18.6h-4.7v-2.8h12.1V102.4z"/>
			<path fill="#ABABAB" d="M77.9,110.5c0.5,0.5,0.9,1.1,1.2,1.8c0.3,0.7,0.4,1.5,0.4,2.4v6.3h-2.8v-6.3c0-1.9-0.9-2.8-2.7-2.8h-1.4
				h-0.3v9.1h-2.7V99.6H74c1.8,0,3.2,0.5,4.1,1.6c0.9,1,1.3,2.5,1.3,4.5c0,2-0.4,3.5-1.3,4.5c0,0-0.1,0.1-0.1,0.1
				C78,110.4,77.9,110.5,77.9,110.5z M74,109.1c0.7,0,1.2-0.1,1.5-0.3s0.5-0.3,0.5-0.4c0.4-0.5,0.6-1.5,0.6-2.7
				c0-0.7-0.1-1.3-0.2-1.7c-0.1-0.4-0.3-0.8-0.5-1c-0.2-0.2-0.5-0.4-0.8-0.5c-0.3-0.1-0.7-0.1-1.2-0.1h-1.7v6.7h0.3H74z"/>
			<path fill="#ABABAB" d="M84.4,102.4v6.6h6.1v2.7h-6.1v6.6h6.1v2.7h-8.8V99.7h8.8v2.7H84.4z"/>
			<path fill="#ABABAB" d="M95.2,102.4v6.6h6.1v2.7h-6.1v6.6h6.1v2.7h-8.8V99.7h8.8v2.7H95.2z"/>
			<path fill="#ABABAB" d="M116.6,121c-1.4,0-2.4-0.4-3.1-1.3c-0.7-0.8-1-2.1-1-3.8v-0.4h0.9v0.4c0,1,0.1,1.7,0.3,2.3
				c0.2,0.6,0.5,1,0.8,1.3c0.3,0.3,0.7,0.5,1.1,0.6c0.4,0.1,0.8,0.1,1.1,0.1c1,0,1.9-0.4,2.4-1.1c0.6-0.7,0.9-1.7,0.9-3
				c0-0.7-0.1-1.3-0.4-1.8c-0.2-0.5-0.5-0.9-0.9-1.2c-0.3-0.3-0.7-0.6-1.1-0.7c-0.4-0.2-0.7-0.3-0.9-0.4l-0.5-0.2
				c-0.3-0.1-0.6-0.3-1.1-0.5c-0.4-0.2-0.8-0.5-1.2-0.9c-0.4-0.4-0.7-0.9-1-1.5c-0.3-0.6-0.4-1.3-0.4-2.2c0-1.5,0.3-2.7,1-3.6
				c0.8-1,1.8-1.6,3.2-1.6c1.4,0,2.4,0.5,3.2,1.4c0.7,0.9,1,2.1,1,3.8v0.5h-0.9v-0.5c0-1.5-0.3-2.6-0.8-3.3c-0.5-0.7-1.3-1-2.4-1
				c-1,0-1.8,0.4-2.4,1.2c-0.6,0.8-0.9,1.8-0.9,3.1c0,0.7,0.1,1.3,0.3,1.8c0.2,0.5,0.5,0.9,0.9,1.2c0.3,0.3,0.7,0.6,1.1,0.8
				c0.4,0.2,0.7,0.3,1,0.5l0.5,0.2c0.3,0.1,0.6,0.2,1,0.5c0.4,0.2,0.8,0.5,1.2,0.9c0.4,0.4,0.8,0.9,1.1,1.4c0.3,0.6,0.5,1.3,0.5,2.1
				c0,1.5-0.3,2.6-1,3.5C119,120.5,118,121,116.6,121z"/>
			<path fill="#ABABAB" d="M132.7,102.4H128V121h-0.9v-18.6h-4.7v-0.9h10.3V102.4z"/>
			<path fill="#ABABAB" d="M138,121c-0.4,0-0.9-0.1-1.3-0.2c-0.5-0.1-0.9-0.4-1.2-0.7c-0.4-0.3-0.7-0.8-0.9-1.5
				c-0.2-0.6-0.4-1.4-0.4-2.4v-14.8h0.9v14.8c0,0.9,0.1,1.6,0.3,2.1c0.2,0.5,0.4,0.9,0.7,1.2c0.3,0.3,0.6,0.4,1,0.5
				c0.3,0.1,0.7,0.1,1,0.1c0.3,0,0.6,0,1-0.1c0.3-0.1,0.7-0.3,1-0.5c0.3-0.3,0.5-0.7,0.7-1.2c0.2-0.5,0.3-1.2,0.3-2.1v-14.8h0.9
				v14.8c0,1-0.1,1.8-0.4,2.4c-0.2,0.6-0.5,1.1-0.9,1.5c-0.4,0.3-0.8,0.6-1.2,0.7C138.9,120.9,138.4,121,138,121z"/>
			<path fill="#ABABAB" d="M147.7,121h-3.3v-19.5h3.3c1.5,0,2.7,0.5,3.5,1.4c0.7,0.9,1.1,2.1,1.1,3.9v9c0,1.7-0.4,3-1.1,3.9
				C150.4,120.6,149.2,121,147.7,121z M145.2,120.1h2.4c1.3,0,2.2-0.4,2.7-1.1c0.6-0.7,0.9-1.8,0.9-3.3v-9c0-1.5-0.3-2.6-0.9-3.3
				c-0.6-0.7-1.5-1.1-2.7-1.1h-2.4V120.1z"/>
			<path fill="#ABABAB" d="M154.7,121v-19.5h0.9V121H154.7z"/>
			<path fill="#ABABAB" d="M161.7,121c-0.5,0-0.9-0.1-1.4-0.2c-0.5-0.1-0.9-0.4-1.3-0.8c-0.4-0.4-0.7-0.9-1-1.6
				c-0.3-0.7-0.4-1.5-0.4-2.6v-9.2c0-1.7,0.3-2.9,1-3.8c0.7-0.9,1.8-1.3,3.1-1.3c1.4,0,2.4,0.4,3.1,1.3c0.7,0.9,1,2.1,1,3.8v9.2
				c0,1.1-0.1,2-0.4,2.6c-0.3,0.7-0.6,1.2-1,1.6c-0.4,0.4-0.9,0.6-1.3,0.8C162.6,121,162.2,121,161.7,121z M161.7,102.4
				c-1.1,0-1.9,0.3-2.4,1c-0.6,0.7-0.8,1.8-0.8,3.2v9.2c0,1.5,0.3,2.6,0.8,3.3c0.5,0.7,1.3,1,2.4,1c1.1,0,1.9-0.3,2.4-1
				c0.5-0.7,0.8-1.8,0.8-3.3v-9.2c0-1.5-0.3-2.6-0.8-3.2C163.6,102.7,162.8,102.4,161.7,102.4z"/>
		</g>
	</g>
</g>
<g id="Layer_2" display="none">
	<rect display="inline" fill="#ABABAB" width="175" height="130"/>
</g>
</svg>
