<?xml version="1.0" encoding="utf-8"?>
<!-- Generator: Adobe Illustrator 18.1.1, SVG Export Plug-In . SVG Version: 6.00 Build 0)  -->
<svg version="1.1" id="Layer_1" xmlns="http://www.w3.org/2000/svg" xmlns:xlink="http://www.w3.org/1999/xlink" x="0px" y="0px"
	 viewBox="0 0 350 350" enable-background="new 0 0 350 350" xml:space="preserve">
<g>
	<polyline fill="none" stroke="#46B375" stroke-width="8" stroke-miterlimit="10" points="299.2,86.9 299.2,119.8 189.1,119.8 	"/>
	<g>
		<polyline fill="none" stroke="#46B375" stroke-width="8" stroke-miterlimit="10" points="274.9,323.6 189.1,323.6 189.1,53.2 		
			"/>
		<polyline fill="none" stroke="#46B375" stroke-width="8" stroke-miterlimit="10" points="160.9,81.4 160.9,323.6 75.3,323.6 		"/>
		<line fill="none" stroke="#46B375" stroke-width="8" stroke-miterlimit="10" x1="274.9" y1="202.1" x2="274.9" y2="170"/>
		<line fill="none" stroke="#46B375" stroke-width="8" stroke-miterlimit="10" x1="75.3" y1="235.1" x2="75.3" y2="207.6"/>
		<polyline fill="none" stroke="#46B375" stroke-width="8" stroke-miterlimit="10" points="332.1,153.2 332.1,202.1 189.1,202.1 		
			"/>
		<polyline fill="none" stroke="#46B375" stroke-width="8" stroke-miterlimit="10" points="17.9,179.4 17.9,235.1 160.9,235.1 		"/>
		<line fill="none" stroke="#46B375" stroke-width="8" stroke-miterlimit="10" x1="189.1" y1="82.2" x2="150.3" y2="82.2"/>
		<line fill="none" stroke="#46B375" stroke-width="8" stroke-miterlimit="10" x1="111.9" y1="151.2" x2="111.9" y2="170"/>
		<polyline fill="none" stroke="#46B375" stroke-width="8" stroke-miterlimit="10" points="52.4,136.3 52.4,170 126,170 126,235.1 
					"/>
		<line fill="none" stroke="#46B375" stroke-width="8" stroke-miterlimit="10" x1="232" y1="101.1" x2="232" y2="119"/>
		<line fill="none" stroke="#46B375" stroke-width="8" stroke-miterlimit="10" x1="228.7" y1="202.1" x2="228.7" y2="187.8"/>
	</g>
</g>
<g>
	<circle fill="#46B375" cx="17.9" cy="177.8" r="15.9"/>
	<circle fill="#46B375" cx="75.3" cy="207.2" r="15.9"/>
	<circle fill="#46B375" cx="52.4" cy="131.6" r="15.9"/>
	<circle fill="#46B375" cx="111.9" cy="144.7" r="15.9"/>
	<circle fill="#46B375" cx="189.1" cy="42.3" r="15.9"/>
	<circle fill="#46B375" cx="139.1" cy="82.2" r="15.9"/>
	<circle fill="#46B375" cx="232" cy="96.3" r="15.9"/>
	<circle fill="#46B375" cx="299.2" cy="80.5" r="15.9"/>
	<circle fill="#46B375" cx="228.3" cy="178.8" r="15.9"/>
	<circle fill="#46B375" cx="274.9" cy="162.4" r="15.9"/>
	<circle fill="#46B375" cx="332.1" cy="147.5" r="15.9"/>
	<circle fill="#46B375" cx="160.9" cy="235.1" r="15.9"/>
	<circle fill="#46B375" cx="192.6" cy="119" r="15.9"/>
</g>
</svg>
