<?xml version="1.0" encoding="utf-8"?>
<!-- Generator: Adobe Illustrator 18.1.1, SVG Export Plug-In . SVG Version: 6.00 Build 0)  -->
<svg version="1.1" id="Layer_1" xmlns="http://www.w3.org/2000/svg" xmlns:xlink="http://www.w3.org/1999/xlink" x="0px" y="0px"
	 viewBox="0 0 500 500" enable-background="new 0 0 500 500" xml:space="preserve">
<g>
	<g>
		<polyline fill="none" stroke="#FFFFFF" stroke-width="8" stroke-miterlimit="10" points="427.4,124.1 427.4,171.1 270.1,171.1 		
			"/>
		<g>
			<polyline fill="none" stroke="#FFFFFF" stroke-width="8" stroke-miterlimit="10" points="392.7,462.3 270.1,462.3 270.1,76 			
				"/>
			<polyline fill="none" stroke="#FFFFFF" stroke-width="8" stroke-miterlimit="10" points="229.9,116.3 229.9,462.3 107.6,462.3 
							"/>
			<line fill="none" stroke="#FFFFFF" stroke-width="8" stroke-miterlimit="10" x1="392.7" y1="288.7" x2="392.7" y2="242.9"/>
			<line fill="none" stroke="#FFFFFF" stroke-width="8" stroke-miterlimit="10" x1="107.6" y1="335.9" x2="107.6" y2="296.6"/>
			<polyline fill="none" stroke="#FFFFFF" stroke-width="8" stroke-miterlimit="10" points="474.4,218.9 474.4,288.7 270.1,288.7 
							"/>
			<polyline fill="none" stroke="#FFFFFF" stroke-width="8" stroke-miterlimit="10" points="25.6,256.3 25.6,335.9 229.9,335.9 			
				"/>
			<line fill="none" stroke="#FFFFFF" stroke-width="8" stroke-miterlimit="10" x1="270.1" y1="117.4" x2="214.7" y2="117.4"/>
			<line fill="none" stroke="#FFFFFF" stroke-width="8" stroke-miterlimit="10" x1="159.9" y1="216" x2="159.9" y2="242.9"/>
			<polyline fill="none" stroke="#FFFFFF" stroke-width="8" stroke-miterlimit="10" points="74.9,194.7 74.9,242.9 180,242.9 
				180,335.9 			"/>
			<line fill="none" stroke="#FFFFFF" stroke-width="8" stroke-miterlimit="10" x1="331.4" y1="144.4" x2="331.4" y2="170"/>
			<line fill="none" stroke="#FFFFFF" stroke-width="8" stroke-miterlimit="10" x1="326.7" y1="288.7" x2="326.7" y2="268.3"/>
		</g>
	</g>
	<g>
		<circle fill="#FFFFFF" cx="25.6" cy="254" r="22.7"/>
		<circle fill="#FFFFFF" cx="107.6" cy="296" r="22.7"/>
		<circle fill="#FFFFFF" cx="74.9" cy="188" r="22.7"/>
		<circle fill="#FFFFFF" cx="159.9" cy="206.7" r="22.7"/>
		<circle fill="#FFFFFF" cx="270.1" cy="60.4" r="22.7"/>
		<circle fill="#FFFFFF" cx="198.7" cy="117.4" r="22.7"/>
		<circle fill="#FFFFFF" cx="331.4" cy="137.6" r="22.7"/>
		<circle fill="#FFFFFF" cx="427.4" cy="115" r="22.7"/>
		<circle fill="#FFFFFF" cx="326.1" cy="255.4" r="22.7"/>
		<circle fill="#FFFFFF" cx="392.7" cy="232" r="22.7"/>
		<circle fill="#FFFFFF" cx="474.4" cy="210.7" r="22.7"/>
		<circle fill="#FFFFFF" cx="229.9" cy="335.9" r="22.7"/>
		<circle fill="#FFFFFF" cx="275.1" cy="170" r="22.7"/>
	</g>
</g>
</svg>
